HIERARCHY
ROOT newVegas:Hips
{
	OFFSET 0.000000 96.479958 0.000000
	CHANNELS 6 Xposition Yposition Zposition Xrotation Yrotation Zrotation
	JOINT newVegas:Pelvis
	{
		OFFSET 0.000000 0.000000 0.000000
		CHANNELS 3 Xrotation Yrotation Zrotation
		JOINT newVegas:LeftUpLeg
		{
			OFFSET 18.735201 -5.666702 -4.541200
			CHANNELS 3 Xrotation Yrotation Zrotation
			JOINT newVegas:LeftLeg
			{
				OFFSET -0.021200 -31.938179 0.493100
				CHANNELS 3 Xrotation Yrotation Zrotation
				JOINT newVegas:LeftFoot
				{
					OFFSET 0.021200 -31.938179 -4.336299
					CHANNELS 3 Xrotation Yrotation Zrotation
					JOINT newVegas:LeftToeBase
					{
						OFFSET 0.943001 -26.722000 15.023500
						CHANNELS 3 Xrotation Yrotation Zrotation
						End Site
						{
							OFFSET 0.000000 30.670183 0.000000
						}
					}
				}
				JOINT newVegas:Left_PantLeg
				{
					OFFSET 0.663870 -9.044666 -1.108900
					CHANNELS 3 Xrotation Yrotation Zrotation
					End Site
					{
						OFFSET 1.415995 20.635357 0.000000
					}
				}
			}
		}
		JOINT newVegas:RightUpLeg
		{
			OFFSET -18.735201 -5.666702 -4.541200
			CHANNELS 3 Xrotation Yrotation Zrotation
			JOINT newVegas:RightLeg
			{
				OFFSET 0.018946 -31.938133 0.493100
				CHANNELS 3 Xrotation Yrotation Zrotation
				JOINT newVegas:RightFoot
				{
					OFFSET -0.018946 -31.938126 -4.336299
					CHANNELS 3 Xrotation Yrotation Zrotation
					JOINT newVegas:RightToeBase
					{
						OFFSET -0.943001 -26.722004 15.023500
						CHANNELS 3 Xrotation Yrotation Zrotation
						End Site
						{
							OFFSET 0.000000 30.670187 0.000000
						}
					}
				}
				JOINT newVegas:Right_PantLeg
				{
					OFFSET -0.661674 -9.044716 -1.108900
					CHANNELS 3 Xrotation Yrotation Zrotation
					End Site
					{
						OFFSET -1.415958 20.635269 0.000000
					}
				}
			}
		}
	}
	JOINT newVegas:Spine
	{
		OFFSET 0.000000 10.199997 -0.299500
		CHANNELS 3 Xrotation Yrotation Zrotation
		JOINT newVegas:Spine1
		{
			OFFSET 0.000000 11.900002 -1.516600
			CHANNELS 3 Xrotation Yrotation Zrotation
			JOINT newVegas:Spine2
			{
				OFFSET 0.000000 13.600006 -2.842500
				CHANNELS 3 Xrotation Yrotation Zrotation
				JOINT newVegas:Neck
				{
					OFFSET 0.000000 9.624100 -2.890100
					CHANNELS 3 Xrotation Yrotation Zrotation
					JOINT newVegas:Head
					{
						OFFSET 0.000000 14.068802 -1.351900
						CHANNELS 3 Xrotation Yrotation Zrotation
						JOINT newVegas:Hair_Back
						{
							OFFSET 0.000000 3.231903 -17.524799
							CHANNELS 3 Xrotation Yrotation Zrotation
							End Site
							{
								OFFSET 0.000000 19.849884 0.000000
							}
						}
						JOINT newVegas:Hair_Front
						{
							OFFSET 0.000000 31.260406 4.573800
							CHANNELS 3 Xrotation Yrotation Zrotation
							JOINT newVegas:Hair_Front1
							{
								OFFSET 0.000000 2.284103 11.993300
								CHANNELS 3 Xrotation Yrotation Zrotation
								JOINT newVegas:Hair_Front2
								{
									OFFSET 0.000000 2.284103 11.993300
									CHANNELS 3 Xrotation Yrotation Zrotation
									End Site
									{
										OFFSET 0.000000 12.208862 0.000000
									}
								}
							}
						}
						JOINT newVegas:Jowel
						{
							OFFSET 0.000000 -7.458206 6.864100
							CHANNELS 3 Xrotation Yrotation Zrotation
							End Site
							{
								OFFSET 0.000000 19.849884 0.000000
							}
						}
					}
				}
				JOINT newVegas:LeftShoulder
				{
					OFFSET 15.263000 10.923401 -0.547700
					CHANNELS 3 Xrotation Yrotation Zrotation
					JOINT newVegas:LeftArm
					{
						OFFSET 25.438599 -2.830597 -13.032500
						CHANNELS 3 Xrotation Yrotation Zrotation
						JOINT newVegas:LeftForeArm
						{
							OFFSET 29.960503 0.000000 0.000000
							CHANNELS 3 Xrotation Yrotation Zrotation
							JOINT newVegas:LeftHand
							{
								OFFSET 27.849251 0.000000 0.000000
								CHANNELS 3 Xrotation Yrotation Zrotation
								JOINT newVegas:LeftHandThumb1
								{
									OFFSET 4.487587 -3.305161 6.305391
									CHANNELS 3 Xrotation Yrotation Zrotation
									JOINT newVegas:LeftHandThumb2
									{
										OFFSET 5.480453 -3.164139 3.164143
										CHANNELS 3 Xrotation Yrotation Zrotation
										JOINT newVegas:LeftHandThumb3
										{
											OFFSET 5.159721 -2.978973 2.978967
											CHANNELS 3 Xrotation Yrotation Zrotation
											End Site
											{
												OFFSET 2.494507 5.926697 1.738678
											}
										}
									}
								}
								JOINT newVegas:LeftHandIndex1
								{
									OFFSET 18.578728 -0.527832 5.208049
									CHANNELS 3 Xrotation Yrotation Zrotation
									JOINT newVegas:LeftHandIndex2
									{
										OFFSET 3.192009 0.000000 0.000000
										CHANNELS 3 Xrotation Yrotation Zrotation
										JOINT newVegas:LeftHandIndex3
										{
											OFFSET 3.835129 0.000000 0.000000
											CHANNELS 3 Xrotation Yrotation Zrotation
											End Site
											{
												OFFSET -0.034599 3.816971 0.371180
											}
										}
									}
								}
								JOINT newVegas:LeftHandMiddle1
								{
									OFFSET 18.476105 0.000000 0.000000
									CHANNELS 3 Xrotation Yrotation Zrotation
									JOINT newVegas:LeftHandMiddle2
									{
										OFFSET 3.324875 0.000000 0.000000
										CHANNELS 3 Xrotation Yrotation Zrotation
										JOINT newVegas:LeftHandMiddle3
										{
											OFFSET 4.596550 0.000000 0.000000
											CHANNELS 3 Xrotation Yrotation Zrotation
											End Site
											{
												OFFSET 0.057701 4.578827 0.399218
											}
										}
									}
								}
								JOINT newVegas:LeftHandRing1
								{
									OFFSET 17.732719 0.121887 -4.201567
									CHANNELS 3 Xrotation Yrotation Zrotation
									JOINT newVegas:LeftHandRing2
									{
										OFFSET 2.733170 0.000000 0.000000
										CHANNELS 3 Xrotation Yrotation Zrotation
										JOINT newVegas:LeftHandRing3
										{
											OFFSET 3.178268 0.000000 0.000000
											CHANNELS 3 Xrotation Yrotation Zrotation
											End Site
											{
												OFFSET 0.119102 3.170624 0.185394
											}
										}
									}
								}
								JOINT newVegas:LeftHandPinky1
								{
									OFFSET 15.989624 -0.606689 -7.535461
									CHANNELS 3 Xrotation Yrotation Zrotation
									JOINT newVegas:LeftHandPinky2
									{
										OFFSET 2.538986 0.000000 0.000000
										CHANNELS 3 Xrotation Yrotation Zrotation
										JOINT newVegas:LeftHandPinky3
										{
											OFFSET 2.593102 0.000000 0.000000
											CHANNELS 3 Xrotation Yrotation Zrotation
											End Site
											{
												OFFSET -0.150902 2.584198 0.152708
											}
										}
									}
								}
							}
							JOINT newVegas:Left_Sleeve
							{
								OFFSET 0.267448 -0.649796 0.577675
								CHANNELS 3 Xrotation Yrotation Zrotation
								End Site
								{
									OFFSET 0.000000 15.991241 0.000000
								}
							}
							JOINT newVegas:Left_CapeC
							{
								OFFSET 15.715958 -8.608795 -6.935905
								CHANNELS 3 Xrotation Yrotation Zrotation
								JOINT newVegas:Left_CapeC1
								{
									OFFSET 0.000000 -8.688499 0.000000
									CHANNELS 3 Xrotation Yrotation Zrotation
									End Site
									{
										OFFSET 0.000000 8.688499 0.000000
									}
								}
							}
						}
						JOINT newVegas:Left_CapeB
						{
							OFFSET 26.118385 -8.608795 -7.079235
							CHANNELS 3 Xrotation Yrotation Zrotation
							JOINT newVegas:Left_CapeB1
							{
								OFFSET 0.000000 -8.688499 0.000000
								CHANNELS 3 Xrotation Yrotation Zrotation
								End Site
								{
									OFFSET 0.000000 8.688499 0.000000
								}
							}
						}
						JOINT newVegas:Left_CapeA
						{
							OFFSET 5.115639 -8.608795 -10.395809
							CHANNELS 3 Xrotation Yrotation Zrotation
							JOINT newVegas:Left_CapeA1
							{
								OFFSET 0.000000 -8.688499 0.000000
								CHANNELS 3 Xrotation Yrotation Zrotation
								End Site
								{
									OFFSET 0.000000 8.688499 0.000000
								}
							}
						}
					}
				}
				JOINT newVegas:RightShoulder
				{
					OFFSET -15.263000 10.923401 -0.547700
					CHANNELS 3 Xrotation Yrotation Zrotation
					JOINT newVegas:RightArm
					{
						OFFSET -25.438599 -2.830597 -13.032500
						CHANNELS 3 Xrotation Yrotation Zrotation
						JOINT newVegas:RightForeArm
						{
							OFFSET -29.960503 0.000000 0.000000
							CHANNELS 3 Xrotation Yrotation Zrotation
							JOINT newVegas:RightHand
							{
								OFFSET -27.849251 0.000000 0.000000
								CHANNELS 3 Xrotation Yrotation Zrotation
								JOINT newVegas:RightHandThumb1
								{
									OFFSET -4.487587 -3.305161 6.305391
									CHANNELS 3 Xrotation Yrotation Zrotation
									JOINT newVegas:RightHandThumb2
									{
										OFFSET -5.480453 -3.164139 3.164143
										CHANNELS 3 Xrotation Yrotation Zrotation
										JOINT newVegas:RightHandThumb3
										{
											OFFSET -5.159721 -2.978973 2.978967
											CHANNELS 3 Xrotation Yrotation Zrotation
											End Site
											{
												OFFSET -2.494507 5.926697 1.738678
											}
										}
									}
								}
								JOINT newVegas:RightHandIndex1
								{
									OFFSET -18.578728 -0.527832 5.208049
									CHANNELS 3 Xrotation Yrotation Zrotation
									JOINT newVegas:RightHandIndex2
									{
										OFFSET -3.192009 0.000000 0.000000
										CHANNELS 3 Xrotation Yrotation Zrotation
										JOINT newVegas:RightHandIndex3
										{
											OFFSET -3.835129 0.000000 0.000000
											CHANNELS 3 Xrotation Yrotation Zrotation
											End Site
											{
												OFFSET 0.034599 3.816971 0.371180
											}
										}
									}
								}
								JOINT newVegas:RightHandMiddle1
								{
									OFFSET -18.476105 0.000000 0.000000
									CHANNELS 3 Xrotation Yrotation Zrotation
									JOINT newVegas:RightHandMiddle2
									{
										OFFSET -3.324875 0.000000 0.000000
										CHANNELS 3 Xrotation Yrotation Zrotation
										JOINT newVegas:RightHandMiddle3
										{
											OFFSET -4.596550 0.000000 0.000000
											CHANNELS 3 Xrotation Yrotation Zrotation
											End Site
											{
												OFFSET -0.057701 4.578827 0.399218
											}
										}
									}
								}
								JOINT newVegas:RightHandRing1
								{
									OFFSET -17.732719 0.121887 -4.201567
									CHANNELS 3 Xrotation Yrotation Zrotation
									JOINT newVegas:RightHandRing2
									{
										OFFSET -2.733170 0.000000 0.000000
										CHANNELS 3 Xrotation Yrotation Zrotation
										JOINT newVegas:RightHandRing3
										{
											OFFSET -3.178268 0.000000 0.000000
											CHANNELS 3 Xrotation Yrotation Zrotation
											End Site
											{
												OFFSET -0.119102 3.170624 0.185394
											}
										}
									}
								}
								JOINT newVegas:RightHandPinky1
								{
									OFFSET -15.989624 -0.606689 -7.535461
									CHANNELS 3 Xrotation Yrotation Zrotation
									JOINT newVegas:RightHandPinky2
									{
										OFFSET -2.538986 0.000000 0.000000
										CHANNELS 3 Xrotation Yrotation Zrotation
										JOINT newVegas:RightHandPinky3
										{
											OFFSET -2.593102 0.000000 0.000000
											CHANNELS 3 Xrotation Yrotation Zrotation
											End Site
											{
												OFFSET 0.150902 2.584198 0.152708
											}
										}
									}
								}
							}
							JOINT newVegas:Right_CapeC
							{
								OFFSET -15.715958 -8.608795 -6.935905
								CHANNELS 3 Xrotation Yrotation Zrotation
								JOINT newVegas:Right_CapeC1
								{
									OFFSET 0.000000 -8.688499 0.000000
									CHANNELS 3 Xrotation Yrotation Zrotation
									End Site
									{
										OFFSET 0.000000 8.688499 0.000000
									}
								}
							}
							JOINT newVegas:Right_Sleeve
							{
								OFFSET -0.267448 -0.649994 0.577675
								CHANNELS 3 Xrotation Yrotation Zrotation
								End Site
								{
									OFFSET 0.000000 15.991302 0.000000
								}
							}
						}
						JOINT newVegas:Right_CapeA
						{
							OFFSET -5.115540 -8.608795 -10.395824
							CHANNELS 3 Xrotation Yrotation Zrotation
							JOINT newVegas:Right_CapeA1
							{
								OFFSET 0.000000 -8.688499 0.000000
								CHANNELS 3 Xrotation Yrotation Zrotation
								End Site
								{
									OFFSET 0.000000 8.688499 0.000000
								}
							}
						}
						JOINT newVegas:Right_CapeB
						{
							OFFSET -26.118187 -8.608795 -7.079266
							CHANNELS 3 Xrotation Yrotation Zrotation
							JOINT newVegas:Right_CapeB1
							{
								OFFSET 0.000000 -8.688499 0.000000
								CHANNELS 3 Xrotation Yrotation Zrotation
								End Site
								{
									OFFSET 0.000000 8.688499 0.000000
								}
							}
						}
					}
				}
				JOINT newVegas:Left_Collar
				{
					OFFSET 18.625099 8.655502 8.828100
					CHANNELS 3 Xrotation Yrotation Zrotation
					JOINT newVegas:Left_Collar1
					{
						OFFSET 14.783401 10.540405 -1.259500
						CHANNELS 3 Xrotation Yrotation Zrotation
						End Site
						{
							OFFSET 0.000000 18.199875 0.000000
						}
					}
				}
				JOINT newVegas:Collar_Back
				{
					OFFSET 0.000000 15.630707 -20.132601
					CHANNELS 3 Xrotation Yrotation Zrotation
					End Site
					{
						OFFSET 0.000000 22.523010 0.000000
					}
				}
				JOINT newVegas:Left_Peck
				{
					OFFSET 17.239599 -5.132599 25.482599
					CHANNELS 3 Xrotation Yrotation Zrotation
					End Site
					{
						OFFSET 0.000000 22.523010 0.000000
					}
				}
				JOINT newVegas:Right_Peck
				{
					OFFSET -17.239599 -5.132202 25.482599
					CHANNELS 3 Xrotation Yrotation Zrotation
					End Site
					{
						OFFSET 0.000000 22.523010 0.000000
					}
				}
				JOINT newVegas:Right_Collar
				{
					OFFSET -18.625099 8.655792 8.828100
					CHANNELS 3 Xrotation Yrotation Zrotation
					JOINT newVegas:Right_Collar1
					{
						OFFSET -14.783401 10.539993 -1.259500
						CHANNELS 3 Xrotation Yrotation Zrotation
						End Site
						{
							OFFSET 0.000000 18.199631 0.000000
						}
					}
				}
			}
		}
		JOINT newVegas:Belly
		{
			OFFSET 0.000000 -6.540398 9.014299
			CHANNELS 3 Xrotation Yrotation Zrotation
			End Site
			{
				OFFSET 0.000000 11.566666 0.000000
			}
		}
	}
	JOINT newVegas:ElvisFacialAnim_Joint
	{
		OFFSET 1.000000 -95.330101 -8.825800
		CHANNELS 3 Xrotation Yrotation Zrotation
		End Site
		{
			OFFSET 0.000000 35.315800 0.000000
		}
	}
}
MOTION
Frames: 4
Frame Time: 0.016667
3.945197 87.081802 121.327713 4.449799 -6.056521 -3.530399 -0.000000 -0.000000 0.000000 -54.700939 8.068529 10.603398 37.533150 -6.782331 3.224056 3.910327 -13.742461 -3.037913 -0.000000 -0.000000 0.000000 0.000000 0.000000 -0.000000 -23.176579 2.861253 7.503135 48.511822 3.466142 -2.446534 -28.799305 -1.130334 0.116099 0.000000 0.000000 -0.000000 -0.000003 -0.000000 -0.000000 16.202804 3.401686 1.915929 20.044449 7.628497 3.273776 19.863230 7.768543 3.728081 -4.568201 3.046582 -5.881588 -4.568205 3.046589 -5.881587 -0.000003 0.000000 0.000001 -4.568205 3.046583 -5.881589 -4.568203 3.046591 -5.881586 -0.000003 -0.000003 -0.000000 -0.000003 0.000000 0.000001 -3.629733 -15.408610 -10.382903 -11.971366 6.480803 -65.205084 -0.000008 -64.653922 -0.000006 10.348446 11.182152 -5.507156 40.231546 -29.869684 63.220654 101.357132 66.798116 231.385745 -0.000000 0.000002 -0.000004 0.326278 4.094618 -16.584181 0.575161 2.533363 -25.578751 0.000000 0.000001 0.000001 -1.060373 2.730909 -36.207529 1.715299 4.142479 -44.971803 0.000001 -0.000001 0.000000 -3.216818 3.157171 -55.387790 2.284635 4.641472 -52.395850 -0.000000 0.000001 0.000000 -4.251953 3.052465 -58.936978 2.013167 4.419804 -48.960476 -0.000000 0.000000 -0.000000 -0.000001 -0.000000 -0.000000 -0.000001 -0.000000 -0.000000 -0.000002 -0.000000 0.000000 0.000000 0.000000 0.000003 -0.000000 -0.000001 0.000001 0.000000 0.000000 0.000003 -0.000000 -0.000002 0.000001 -0.264775 19.358394 4.692119 -45.642746 8.432336 36.901470 0.002422 101.974636 -0.002391 -5.090111 -12.734922 15.640850 33.081775 30.015246 -8.052853 13.702082 -51.628447 20.266373 0.000003 -0.000003 -0.000003 0.112181 -3.191138 17.097157 3.780015 -4.573984 79.132058 0.000000 -0.000001 -0.000002 2.613413 -8.387961 27.063294 5.675743 -4.544625 102.647095 0.000000 0.000000 0.000000 1.668059 -5.863626 57.331536 4.190485 -4.633767 84.242488 -0.000001 0.000001 0.000000 1.874831 -6.023840 60.182450 3.825247 -4.582406 79.698896 0.000001 -0.000000 -0.000000 -0.000001 -0.000001 -0.000001 -0.000001 -0.000001 0.000002 -0.000001 -0.000001 -0.000001 0.000000 0.000000 -0.000000 0.000000 0.000000 -0.000000 0.000000 0.000000 -0.000000 0.000000 -0.000000 -0.000000 -0.000000 -0.000002 -0.000001 -0.000000 -0.000002 -0.000001 -0.000000 -0.000002 -0.000001 -0.000000 -0.000002 -0.000001 -0.000000 -0.000002 -0.000001 -0.000000 -0.000002 -0.000001 -0.000000 -0.000002 -0.000001 -0.000002 0.000000 0.000000 -0.000000 -0.000000 0.000000 
3.686564 87.397034 120.407173 3.558168 -6.269552 -3.913768 -0.000000 -0.000000 0.000000 -53.975324 8.010217 11.495487 38.845396 -6.478910 3.661899 0.586854 -11.059912 -3.663455 0.000001 0.000001 0.000000 -0.000001 0.000000 -0.000000 -22.443013 2.649381 7.727859 47.267327 3.739260 -2.151251 -27.843474 -0.897491 -0.023727 -0.000000 -0.000000 -0.000000 -0.000002 0.000000 -0.000000 16.018774 3.378713 1.988717 19.617230 7.612217 3.331498 19.436458 7.747064 3.778477 -4.485461 2.959544 -5.828626 -4.485468 2.959545 -5.828628 -0.000002 0.000000 -0.000000 -4.485441 2.959545 -5.828624 -4.485468 2.959539 -5.828632 0.000000 0.000000 -0.000000 -0.000002 0.000000 0.000000 -3.381580 -14.879787 -10.335932 -13.224293 6.607396 -66.021865 0.000006 -61.657736 0.000003 11.729643 10.831207 -6.290848 40.231546 -29.869684 63.220668 101.357145 66.798103 231.385717 0.000001 -0.000003 0.000000 0.332578 4.115497 -16.628111 0.574479 2.531944 -25.563262 -0.000001 0.000001 0.000002 -1.056184 2.737755 -36.216996 1.715067 4.142247 -44.968507 0.000001 -0.000000 -0.000001 -3.220683 3.154153 -55.385669 2.283638 4.640702 -52.383552 -0.000000 -0.000001 0.000001 -4.265352 3.043566 -58.932935 2.013844 4.420389 -48.969147 0.000000 -0.000003 -0.000000 0.000001 -0.000002 0.000000 0.000001 -0.000002 0.000000 0.000000 -0.000001 0.000000 -0.000000 0.000002 0.000000 -0.000000 0.000001 0.000000 -0.000000 0.000002 0.000000 -0.000001 -0.000000 0.000001 -0.354248 18.524219 5.452756 -46.329638 9.134348 35.856096 0.000647 102.007782 -0.000649 -4.606129 -14.524213 16.388250 33.376491 32.501032 -7.034574 15.577865 -52.554310 22.116817 0.000000 -0.000002 0.000003 0.230059 -3.590290 18.982726 3.761845 -4.570478 78.904060 -0.000000 -0.000002 0.000004 2.920901 -8.736725 28.390118 5.675504 -4.544689 102.644028 -0.000001 -0.000000 -0.000001 1.674761 -5.879974 58.233107 4.191175 -4.633825 84.251046 0.000001 0.000001 -0.000000 1.781903 -5.983862 61.063455 3.804099 -4.578515 79.434157 0.000002 0.000002 0.000001 0.000001 0.000000 0.000001 0.000000 -0.000001 -0.000001 0.000001 0.000000 0.000003 0.000000 0.000002 -0.000000 0.000001 0.000002 0.000001 0.000000 0.000002 -0.000000 0.000001 0.000002 0.000001 -0.000000 0.000000 0.000000 -0.000000 0.000000 0.000000 -0.000000 0.000000 0.000000 -0.000000 0.000000 0.000000 -0.000000 0.000000 0.000000 -0.000000 0.000000 0.000000 -0.000000 0.000000 0.000000 -0.000002 0.000000 -0.000000 -0.000000 -0.000000 0.000000 
3.449138 87.682800 119.518188 2.655381 -6.365304 -4.213214 -0.000000 0.000000 0.000000 -53.187154 8.270300 12.263976 40.425919 -6.403540 4.120613 -3.238467 -8.172692 -3.931477 -0.000000 -0.000000 -0.000000 0.000001 -0.000000 0.000000 -21.741720 2.419008 7.980837 46.222328 3.999387 -1.982990 -26.954752 -0.787158 -0.219115 -0.000000 0.000000 -0.000000 0.000000 0.000000 -0.000000 15.855015 3.339294 2.053964 19.228931 7.527442 3.365998 19.049734 7.657293 3.800925 -4.443428 2.863738 -5.718573 -4.443430 2.863735 -5.718574 -0.000000 -0.000001 0.000000 -4.443454 2.863714 -5.718573 -4.443343 2.863774 -5.718591 0.000001 -0.000001 0.000000 -0.000000 -0.000001 0.000000 -3.121604 -14.392986 -10.230464 -14.562995 6.814952 -66.747286 -0.000016 -58.543833 -0.000024 13.133015 10.507479 -7.034955 40.231559 -29.869698 63.220648 101.357207 66.798130 231.385663 0.000001 -0.000002 -0.000003 0.338911 4.136361 -16.672022 0.573797 2.530520 -25.547846 -0.000002 0.000001 -0.000002 -1.051992 2.744594 -36.226504 1.714829 4.142008 -44.965215 -0.000001 -0.000002 -0.000002 -3.224547 3.151133 -55.383590 2.282645 4.639943 -52.371251 -0.000000 0.000001 -0.000000 -4.278733 3.034668 -58.928905 2.014515 4.420965 -48.977821 0.000000 -0.000003 0.000000 0.000000 0.000001 0.000001 0.000000 0.000001 0.000001 0.000000 0.000001 0.000001 0.000000 -0.000001 -0.000002 0.000000 -0.000002 -0.000002 0.000000 -0.000001 -0.000002 -0.000000 -0.000002 -0.000002 -0.392653 17.683329 6.225812 -47.721859 9.660089 34.897813 0.001270 101.754492 -0.001266 -3.782695 -15.360829 17.241465 33.184235 33.896484 -6.641116 19.104925 -53.466410 25.625779 0.000001 -0.000000 -0.000006 0.430318 -4.130907 22.535895 3.754271 -4.568988 78.809031 -0.000000 0.000000 0.000004 3.498113 -9.251684 31.121511 5.680912 -4.543484 102.712385 0.000001 0.000001 -0.000001 1.784259 -5.966294 59.751526 4.181631 -4.632866 84.132836 0.000000 0.000001 -0.000000 1.716435 -5.975432 62.613970 3.744615 -4.567053 78.687993 0.000001 0.000002 0.000000 -0.000002 0.000000 -0.000001 -0.000003 0.000001 -0.000001 -0.000002 -0.000000 0.000001 -0.000000 0.000001 0.000001 0.000000 0.000000 0.000001 -0.000000 0.000001 0.000001 0.000000 -0.000000 0.000001 -0.000000 0.000001 0.000000 -0.000000 0.000001 0.000000 -0.000000 0.000001 0.000000 -0.000000 0.000001 0.000000 -0.000000 0.000001 0.000000 -0.000000 0.000001 0.000000 -0.000000 0.000001 0.000000 0.000000 0.000001 -0.000000 -0.000000 0.000000 0.000000 
3.249034 87.943420 118.670029 1.743212 -6.322271 -4.441022 0.000000 -0.000000 0.000000 -52.038156 7.814313 12.879972 41.982980 -4.520278 3.918040 -7.144798 -6.296052 -3.940095 0.000000 0.000000 0.000000 0.000000 0.000000 -0.000000 -21.060878 2.092804 8.280271 45.366697 4.194278 -1.949953 -26.039215 -0.749348 -0.634289 -0.000000 0.000000 0.000000 0.000002 0.000001 -0.000000 15.695321 3.297634 2.134890 18.892728 7.360077 3.379201 18.719006 7.487795 3.782731 -4.432796 2.771693 -5.538081 -4.432824 2.771695 -5.538089 0.000000 -0.000002 0.000000 -4.432740 2.771682 -5.538086 -4.432847 2.771736 -5.538091 0.000002 0.000000 -0.000000 0.000000 -0.000002 0.000001 -2.920863 -13.934226 -10.054505 -15.900433 7.130573 -67.405020 -0.000016 -55.377330 -0.000024 14.612001 10.219436 -7.765608 40.231556 -29.869681 63.220682 101.357200 66.798123 231.385663 0.000000 -0.000001 -0.000003 0.345256 4.157187 -16.715892 0.573116 2.529100 -25.532471 -0.000002 -0.000000 0.000002 -1.047805 2.751429 -36.235957 1.714590 4.141770 -44.961916 -0.000001 -0.000002 -0.000001 -3.228415 3.148103 -55.381476 2.281645 4.639176 -52.358943 -0.000000 0.000001 -0.000000 -4.292119 3.025755 -58.924848 2.015182 4.421541 -48.986479 -0.000000 0.000000 -0.000000 0.000000 -0.000000 -0.000001 0.000000 -0.000000 -0.000001 0.000000 -0.000000 -0.000001 -0.000000 -0.000002 0.000001 -0.000000 -0.000003 -0.000000 -0.000000 -0.000002 0.000001 -0.000000 -0.000002 0.000002 -0.415594 16.816233 7.010209 -50.064853 9.752497 34.132685 0.000508 102.015139 -0.000494 -0.832199 -16.814206 17.983345 32.697902 34.534888 -6.548617 23.673096 -54.235493 30.132896 0.000003 -0.000002 -0.000001 0.718708 -4.714155 27.043104 3.751672 -4.568476 78.776588 -0.000001 0.000000 -0.000001 4.252617 -9.772374 34.665990 5.688858 -4.541658 102.812597 -0.000001 -0.000000 -0.000001 1.962023 -6.088648 61.568985 4.166815 -4.631326 83.949397 0.000001 0.000001 -0.000000 1.641918 -5.979117 64.563524 3.670827 -4.551726 77.759914 0.000002 -0.000000 -0.000001 0.000000 -0.000001 0.000001 0.000000 -0.000001 0.000001 0.000000 -0.000001 0.000002 -0.000001 0.000001 -0.000002 -0.000001 0.000001 -0.000004 -0.000001 0.000001 -0.000002 -0.000001 0.000001 -0.000002 -0.000001 -0.000001 -0.000000 -0.000001 -0.000001 -0.000000 -0.000001 -0.000001 -0.000000 -0.000001 -0.000001 -0.000000 -0.000001 -0.000001 -0.000000 -0.000001 -0.000001 -0.000000 -0.000001 -0.000001 -0.000000 0.000000 -0.000000 0.000000 0.000000 -0.000000 0.000000 
